<svg width="24" height="24" viewBox="0 0 24 24" fill="none" xmlns="http://www.w3.org/2000/svg">
<circle cx="9" cy="6" r="0.5" transform="rotate(-90 9 6)" fill="#727272" stroke="#727272"/>
<path d="M13.2553 12.3307L10.586 9.5C10.4905 9.40775 10.4143 9.29741 10.3619 9.1754C10.3095 9.0534 10.2819 8.92218 10.2807 8.7894C10.2796 8.65662 10.3049 8.52494 10.3552 8.40205C10.4055 8.27915 10.4797 8.1675 10.5736 8.0736C10.6675 7.97971 10.7791 7.90546 10.902 7.85518C11.0249 7.8049 11.1566 7.7796 11.2894 7.78075C11.4222 7.7819 11.5534 7.80949 11.6754 7.8619C11.7974 7.91431 11.9078 7.99049 12 8.086L15.3763 11.6237C15.5638 11.8112 15.6691 12.0655 15.6691 12.3307C15.6691 12.5959 15.5638 12.8502 15.3763 13.0377L9.71929 18.6947C9.62704 18.7902 9.5167 18.8664 9.39469 18.9188C9.27269 18.9712 9.14147 18.9988 9.00869 19C8.87591 19.0011 8.74423 18.9758 8.62133 18.9255C8.49844 18.8753 8.38679 18.801 8.29289 18.7071C8.199 18.6132 8.12475 18.5016 8.07447 18.3787C8.02419 18.2558 7.99888 18.1241 8.00004 17.9913C8.00119 17.8585 8.02878 17.7273 8.08119 17.6053C8.1336 17.4833 8.20978 17.373 8.30529 17.2807L13.2553 12.3307Z" fill="#727272"/>
</svg>
