<svg width="48" height="48" viewBox="0 0 48 48" fill="none" xmlns="http://www.w3.org/2000/svg">
<path d="M29.1581 4.65157C28.9059 4.52866 28.6242 4.47896 28.3451 4.50813C28.0661 4.53729 27.8008 4.64416 27.5794 4.81657L14.4844 14.9997H6C5.20435 14.9997 4.44129 15.3158 3.87868 15.8784C3.31607 16.441 3 17.204 3 17.9997V29.9997C3 30.7953 3.31607 31.5584 3.87868 32.121C4.44129 32.6836 5.20435 32.9997 6 32.9997H14.4844L27.5794 43.1828C27.801 43.3551 28.0665 43.4617 28.3456 43.4906C28.6248 43.5195 28.9065 43.4695 29.1587 43.3462C29.4109 43.223 29.6234 43.0314 29.7721 42.7934C29.9208 42.5554 29.9998 42.2804 30 41.9997V5.9997C30 5.71869 29.9211 5.44332 29.7723 5.20496C29.6235 4.96661 29.4106 4.77486 29.1581 4.65157ZM6 17.9997H13.5V29.9997H6V17.9997ZM27 38.9322L16.5 30.7666V17.2328L27 9.0672V38.9322ZM37.125 19.0422C38.3315 20.4118 38.9971 22.1744 38.9971 23.9997C38.9971 25.8249 38.3315 27.5876 37.125 28.9572C36.86 29.2484 36.4911 29.4237 36.098 29.4453C35.7048 29.4669 35.319 29.3331 35.0236 29.0727C34.7283 28.8123 34.5472 28.4463 34.5194 28.0535C34.4916 27.6608 34.6193 27.2728 34.875 26.9734C35.5985 26.1518 35.9976 25.0945 35.9976 23.9997C35.9976 22.9049 35.5985 21.8476 34.875 21.0259C34.6193 20.7265 34.4916 20.3386 34.5194 19.9459C34.5472 19.5531 34.7283 19.1871 35.0236 18.9267C35.319 18.6663 35.7048 18.5325 36.098 18.5541C36.4911 18.5757 36.86 18.751 37.125 19.0422ZM46.5 23.9997C46.5022 27.6901 45.1421 31.2514 42.6806 34.0009C42.4134 34.2901 42.0433 34.4626 41.65 34.4812C41.2567 34.4998 40.8719 34.3631 40.5786 34.1005C40.2853 33.8379 40.1069 33.4706 40.082 33.0776C40.0572 32.6847 40.1877 32.2978 40.4456 32.0003C42.4133 29.8003 43.5011 26.9522 43.5011 24.0006C43.5011 21.0491 42.4133 18.201 40.4456 16.0009C40.3106 15.8548 40.2059 15.6833 40.1378 15.4963C40.0697 15.3093 40.0395 15.1107 40.0489 14.9119C40.0583 14.7131 40.1072 14.5182 40.1927 14.3385C40.2781 14.1588 40.3985 13.9979 40.5468 13.8652C40.695 13.7325 40.8682 13.6306 41.0563 13.5655C41.2443 13.5004 41.4434 13.4733 41.642 13.4859C41.8406 13.4984 42.0347 13.5504 42.213 13.6387C42.3913 13.727 42.5503 13.85 42.6806 14.0003C45.1428 16.7487 46.5029 20.3097 46.5 23.9997Z" fill="#1E2022"/>
<path d="M42.6197 41.5243L12.6197 8.52425C12.6197 8.52425 12.5997 8.50425 12.5997 8.49425C12.0297 7.89425 11.0797 7.85425 10.4797 8.42425C9.86972 8.98425 9.83972 9.93425 10.3997 10.5443L10.7997 10.9843L12.4897 12.8443L14.5997 15.1642L17.9297 18.8242L20.5097 21.6642L28.2397 30.1642L39.4797 42.5243L40.3997 43.5443C40.3997 43.5443 40.4197 43.5642 40.4197 43.5742C40.9897 44.1742 41.9397 44.2142 42.5397 43.6442C43.1497 43.0842 43.1797 42.1343 42.6197 41.5243Z" fill="#1E2022"/>
</svg>
