<svg width="48" height="48" viewBox="0 0 48 48" fill="none" xmlns="http://www.w3.org/2000/svg">
<path d="M29.1581 4.65182C28.9059 4.5289 28.6242 4.4792 28.3451 4.50837C28.0661 4.53754 27.8008 4.6444 27.5794 4.81682L14.4844 14.9999H6C5.20435 14.9999 4.44129 15.316 3.87868 15.8786C3.31607 16.4412 3 17.2043 3 17.9999V29.9999C3 30.7956 3.31607 31.5587 3.87868 32.1213C4.44129 32.6839 5.20435 32.9999 6 32.9999H14.4844L27.5794 43.1831C27.801 43.3553 28.0665 43.462 28.3456 43.4909C28.6248 43.5197 28.9065 43.4697 29.1587 43.3465C29.4109 43.2232 29.6234 43.0317 29.7721 42.7936C29.9208 42.5556 29.9998 42.2806 30 41.9999V5.99994C30 5.71893 29.9211 5.44356 29.7723 5.20521C29.6235 4.96686 29.4106 4.77511 29.1581 4.65182ZM6 17.9999H13.5V29.9999H6V17.9999ZM27 38.9324L16.5 30.7668V17.2331L27 9.06744V38.9324ZM37.125 19.0424C38.3315 20.4121 38.9971 22.1747 38.9971 23.9999C38.9971 25.8252 38.3315 27.5878 37.125 28.9574C36.86 29.2486 36.4911 29.424 36.098 29.4456C35.7048 29.4672 35.319 29.3334 35.0236 29.073C34.7283 28.8126 34.5472 28.4465 34.5194 28.0538C34.4916 27.661 34.6193 27.2731 34.875 26.9737C35.5985 26.152 35.9976 25.0947 35.9976 23.9999C35.9976 22.9051 35.5985 21.8479 34.875 21.0262C34.6193 20.7268 34.4916 20.3389 34.5194 19.9461C34.5472 19.5534 34.7283 19.1873 35.0236 18.9269C35.319 18.6665 35.7048 18.5327 36.098 18.5543C36.4911 18.5759 36.86 18.7512 37.125 19.0424ZM46.5 23.9999C46.5022 27.6903 45.1421 31.2516 42.6806 34.0012C42.4134 34.2903 42.0433 34.4628 41.65 34.4814C41.2567 34.5001 40.8719 34.3633 40.5786 34.1008C40.2853 33.8382 40.1069 33.4708 40.082 33.0779C40.0572 32.685 40.1877 32.298 40.4456 32.0006C42.4133 29.8005 43.5011 26.9525 43.5011 24.0009C43.5011 21.0493 42.4133 18.2012 40.4456 16.0012C40.3106 15.8551 40.2059 15.6835 40.1378 15.4965C40.0697 15.3096 40.0395 15.1109 40.0489 14.9121C40.0583 14.7134 40.1072 14.5185 40.1927 14.3388C40.2781 14.1591 40.3985 13.9982 40.5468 13.8655C40.695 13.7328 40.8682 13.6309 41.0563 13.5657C41.2443 13.5006 41.4434 13.4735 41.642 13.4861C41.8406 13.4987 42.0347 13.5506 42.213 13.639C42.3913 13.7273 42.5503 13.8502 42.6806 14.0006C45.1428 16.749 46.5029 20.31 46.5 23.9999Z" fill="#1E2022"/>
</svg>
