<svg width="24" height="24" viewBox="0 0 24 24" fill="none" xmlns="http://www.w3.org/2000/svg">
<circle cx="15" cy="18" r="0.5" transform="rotate(90 15 18)" fill="#727272" stroke="#727272"/>
<path d="M10.7447 11.6693L13.414 14.5C13.5095 14.5922 13.5857 14.7026 13.6381 14.8246C13.6905 14.9466 13.7181 15.0778 13.7193 15.2106C13.7204 15.3434 13.6951 15.4751 13.6448 15.598C13.5945 15.7208 13.5203 15.8325 13.4264 15.9264C13.3325 16.0203 13.2208 16.0945 13.098 16.1448C12.9751 16.1951 12.8434 16.2204 12.7106 16.2193C12.5778 16.2181 12.4466 16.1905 12.3246 16.1381C12.2026 16.0857 12.0922 16.0095 12 15.914L8.62371 12.3763C8.43624 12.1888 8.33093 11.9345 8.33093 11.6693C8.33093 11.4041 8.43624 11.1498 8.62371 10.9623L14.2807 5.30529C14.373 5.20978 14.4833 5.1336 14.6053 5.08119C14.7273 5.02878 14.8585 5.00119 14.9913 5.00004C15.1241 4.99888 15.2558 5.02419 15.3787 5.07447C15.5016 5.12475 15.6132 5.199 15.7071 5.29289C15.801 5.38679 15.8753 5.49844 15.9255 5.62133C15.9758 5.74423 16.0011 5.87591 16 6.00869C15.9988 6.14147 15.9712 6.27269 15.9188 6.39469C15.8664 6.5167 15.7902 6.62704 15.6947 6.71929L10.7447 11.6693Z" fill="#727272"/>
</svg>
