<svg width="24" height="24" viewBox="0 0 24 24" fill="none" xmlns="http://www.w3.org/2000/svg">
<circle cx="13.2857" cy="16.2857" r="0.357143" transform="rotate(90 13.2857 16.2857)" fill="#727272" stroke="#727272" stroke-width="0.714286"/>
<path d="M10.2462 11.7638L12.1529 13.7857C12.2211 13.8516 12.2755 13.9304 12.3129 14.0176C12.3504 14.1047 12.3701 14.1984 12.3709 14.2933C12.3717 14.3881 12.3536 14.4822 12.3177 14.57C12.2818 14.6578 12.2288 14.7375 12.1617 14.8046C12.0946 14.8716 12.0149 14.9247 11.9271 14.9606C11.8393 14.9965 11.7453 15.0146 11.6504 15.0138C11.5556 15.0129 11.4619 14.9932 11.3747 14.9558C11.2876 14.9184 11.2087 14.8639 11.1429 14.7957L8.73122 12.2688C8.59731 12.1348 8.52209 11.9532 8.52209 11.7638C8.52209 11.5744 8.59731 11.3927 8.73122 11.2588L12.7719 7.21806C12.8378 7.14984 12.9166 7.09543 13.0038 7.05799C13.0909 7.02056 13.1847 7.00085 13.2795 7.00003C13.3743 6.9992 13.4684 7.01728 13.5562 7.05319C13.644 7.08911 13.7237 7.14214 13.7908 7.20921C13.8579 7.27628 13.9109 7.35603 13.9468 7.44381C13.9827 7.53159 14.0008 7.62565 14 7.72049C13.9991 7.81533 13.9794 7.90906 13.942 7.99621C13.9046 8.08335 13.8502 8.16217 13.7819 8.22806L10.2462 11.7638Z" fill="#727272"/>
</svg>
