<svg width="24" height="24" viewBox="0 0 24 24" fill="none" xmlns="http://www.w3.org/2000/svg">
<path d="M17 11C17 8.38757 15.3304 6.16509 13 5.34142V5C13 3.89543 12.1046 3 11 3C9.89543 3 9 3.89543 9 5V5.34142C6.66962 6.16509 5 8.38757 5 11V14.1585C5 14.6973 4.78595 15.2141 4.40493 15.5951L3 17H8M18.5 16.5L19 17H16.5H14M14 17V18C14 19.6569 12.6569 21 11 21C9.34315 21 8 19.6569 8 18V17M14 17H8" stroke="#B5B5B5" stroke-width="2" stroke-linecap="round" stroke-linejoin="round"/>
<circle cx="18" cy="14" r="1" fill="#B5B5B5"/>
</svg>
