<svg width="24" height="24" viewBox="0 0 24 24" fill="none" xmlns="http://www.w3.org/2000/svg">
<circle cx="9.75" cy="7.75" r="0.5" transform="rotate(-90 9.75 7.75)" fill="#0B0A0A" stroke="#0B0A0A" stroke-width="0.5"/>
<path d="M12.9415 12.498L10.9395 10.375C10.8679 10.3058 10.8107 10.2231 10.7714 10.1316C10.7321 10.0401 10.7114 9.94164 10.7106 9.84205C10.7097 9.74247 10.7287 9.64371 10.7664 9.55153C10.8041 9.45936 10.8598 9.37562 10.9302 9.3052C11.0006 9.23478 11.0844 9.17909 11.1765 9.14138C11.2687 9.10367 11.3675 9.0847 11.4671 9.08556C11.5666 9.08643 11.6651 9.10712 11.7566 9.14642C11.8481 9.18573 11.9308 9.24287 12 9.3145L14.5322 11.9678C14.6728 12.1084 14.7518 12.2992 14.7518 12.498C14.7518 12.6969 14.6728 12.8876 14.5322 13.0283L10.2895 17.271C10.2203 17.3427 10.1375 17.3998 10.046 17.4391C9.95452 17.4784 9.8561 17.4991 9.75652 17.5C9.65693 17.5008 9.55817 17.4819 9.466 17.4442C9.37383 17.4064 9.29009 17.3507 9.21967 17.2803C9.14925 17.2099 9.09356 17.1262 9.05585 17.034C9.01814 16.9418 8.99916 16.8431 9.00003 16.7435C9.00089 16.6439 9.02158 16.5455 9.06089 16.454C9.1002 16.3625 9.15733 16.2797 9.22897 16.2105L12.9415 12.498Z" fill="#0B0A0A"/>
</svg>
