<svg width="24" height="24" viewBox="0 0 24 24" fill="none" xmlns="http://www.w3.org/2000/svg">
<path d="M17 20L12.5819 16.9815C12.233 16.7431 11.7719 16.7498 11.43 16.9981L7.4363 19.8995C6.6526 20.4689 5.59818 19.7028 5.89748 18.7815L7.41597 14.1075C7.54982 13.6955 7.40317 13.2441 7.05271 12.9895L3.07691 10.1007C2.29325 9.53127 2.696 8.29172 3.66469 8.29168L8.57919 8.29149C9.01239 8.29148 9.39631 8.01254 9.53019 7.60055L11.049 2.92664C11.3484 2.00537 12.6518 2.00538 12.9511 2.92664L14.47 7.60055C14.6038 8.01254 14.9878 8.29148 15.421 8.29149L20.3355 8.29168C21.3042 8.29172 21.7069 9.53127 20.9232 10.1007L17.2977 12.735" stroke="#4190DA" stroke-width="2" stroke-linecap="round"/>
<circle cx="17" cy="17" r="1" fill="#4190DA"/>
</svg>
