<svg width="24" height="24" viewBox="0 0 24 24" fill="none" xmlns="http://www.w3.org/2000/svg">
<path d="M3 8V6C3 5.46957 3.21071 4.96086 3.58579 4.58579C3.96086 4.21071 4.46957 4 5 4H7" stroke="#EF6461" stroke-width="2" stroke-linecap="round" stroke-linejoin="round"/>
<path d="M3 16V18C3 18.5304 3.21071 19.0391 3.58579 19.4142C3.96086 19.7893 4.46957 20 5 20H7" stroke="#EF6461" stroke-width="2" stroke-linecap="round" stroke-linejoin="round"/>
<path d="M17 4H19C19.5304 4 20.0391 4.21071 20.4142 4.58579C20.7893 4.96086 21 5.46957 21 6V8" stroke="#EF6461" stroke-width="2" stroke-linecap="round" stroke-linejoin="round"/>
<path d="M17 20H19C19.5304 20 20.0391 19.7893 20.4142 19.4142C20.7893 19.0391 21 18.5304 21 18V16" stroke="#EF6461" stroke-width="2" stroke-linecap="round" stroke-linejoin="round"/>
<path d="M13.1249 15.4851V9L11 10.6213" stroke="#EF6461" stroke-width="2" stroke-linecap="round" stroke-linejoin="round"/>
</svg>
