<svg width="48" height="48" viewBox="0 0 48 48" fill="none" xmlns="http://www.w3.org/2000/svg">
<path d="M40.4356 21.2427L26.0358 6.84285C25.4957 6.30316 24.7635 6 24 6C23.2365 6 22.5043 6.30316 21.9642 6.84285L7.56442 21.2427C7.29569 21.5094 7.08267 21.8269 6.93775 22.1767C6.79282 22.5265 6.71889 22.9016 6.72023 23.2802V40.56C6.72023 40.9419 6.87195 41.3082 7.14199 41.5782C7.41204 41.8483 7.77831 42 8.16021 42H19.6801C20.062 42 20.4282 41.8483 20.6983 41.5782C20.9683 41.3082 21.12 40.9419 21.12 40.56V30.4801H26.88V40.56C26.88 40.9419 27.0317 41.3082 27.3017 41.5782C27.5718 41.8483 27.938 42 28.32 42H39.8398C40.2217 42 40.588 41.8483 40.858 41.5782C41.1281 41.3082 41.2798 40.9419 41.2798 40.56V23.2802C41.2811 22.9016 41.2072 22.5265 41.0623 22.1767C40.9173 21.8269 40.7043 21.5094 40.4356 21.2427ZM38.3998 39.12H29.7599V29.0402C29.7599 28.6583 29.6082 28.292 29.3382 28.0219C29.0681 27.7519 28.7019 27.6002 28.32 27.6002H19.6801C19.2982 27.6002 18.9319 27.7519 18.6618 28.0219C18.3918 28.292 18.2401 28.6583 18.2401 29.0402V39.12H9.6002V23.2802L24 8.88043L38.3998 23.2802V39.12Z" fill="#2C76A8"/>
</svg>
