<svg width="24" height="24" viewBox="0 0 24 24" fill="none" xmlns="http://www.w3.org/2000/svg">
<path fill-rule="evenodd" clip-rule="evenodd" d="M6.75 3C6.35218 3 5.97064 3.15804 5.68934 3.43934C5.40804 3.72064 5.25 4.10218 5.25 4.5V19.5C5.25 19.8978 5.40804 20.2794 5.68934 20.5607C5.97064 20.842 6.35218 21 6.75 21H17.25C17.6478 21 18.0294 20.842 18.3107 20.5607C18.592 20.2794 18.75 19.8978 18.75 19.5V10.3712C18.75 10.3712 18.75 10.3711 18.75 10.3711C18.7499 10.1723 18.671 9.9817 18.5305 9.84111C18.5304 9.84109 18.5304 9.84107 18.5304 9.84105L11.9089 3.21961C11.7684 3.07905 11.5777 3.00006 11.3789 3C11.3789 3 11.3788 3 11.3788 3H6.75ZM4.62868 2.37868C5.19129 1.81607 5.95435 1.5 6.75 1.5H11.379C11.9755 1.50009 12.5476 1.73707 12.9695 2.15883L12.9695 2.15889L19.5912 8.78051C20.0129 9.20237 20.2499 9.77445 20.25 10.371V19.5C20.25 20.2956 19.9339 21.0587 19.3713 21.6213C18.8087 22.1839 18.0456 22.5 17.25 22.5H6.75C5.95435 22.5 5.19129 22.1839 4.62868 21.6213C4.06607 21.0587 3.75 20.2956 3.75 19.5V4.5C3.75 3.70435 4.06607 2.94129 4.62868 2.37868Z" fill="#727272"/>
<path fill-rule="evenodd" clip-rule="evenodd" d="M12 1.875C12.4142 1.875 12.75 2.21079 12.75 2.625V8.25C12.75 8.44891 12.829 8.63968 12.9697 8.78033C13.1103 8.92098 13.3011 9 13.5 9H19.125C19.5392 9 19.875 9.33579 19.875 9.75C19.875 10.1642 19.5392 10.5 19.125 10.5H13.5C12.9033 10.5 12.331 10.2629 11.909 9.84099C11.4871 9.41903 11.25 8.84674 11.25 8.25V2.625C11.25 2.21079 11.5858 1.875 12 1.875Z" fill="#727272"/>
</svg>
