<svg width="24" height="24" viewBox="0 0 24 24" fill="none" xmlns="http://www.w3.org/2000/svg">
<circle cx="1" cy="1" r="0.5" transform="matrix(1 0 0 -1 17 16)" fill="#727272" stroke="#727272"/>
<path d="M11.6693 10.7447L14.5 13.414C14.5922 13.5095 14.7026 13.5857 14.8246 13.6381C14.9466 13.6905 15.0778 13.7181 15.2106 13.7193C15.3434 13.7204 15.4751 13.6951 15.598 13.6448C15.7208 13.5945 15.8325 13.5203 15.9264 13.4264C16.0203 13.3325 16.0945 13.2209 16.1448 13.098C16.1951 12.9751 16.2204 12.8434 16.2193 12.7106C16.2181 12.5778 16.1905 12.4466 16.1381 12.3246C16.0857 12.2026 16.0095 12.0922 15.914 12L12.3763 8.62371C12.1888 8.43624 11.9345 8.33093 11.6693 8.33093C11.4041 8.33093 11.1498 8.43624 10.9623 8.62371L5.30529 14.2807C5.20978 14.373 5.1336 14.4833 5.08119 14.6053C5.02878 14.7273 5.00119 14.8585 5.00004 14.9913C4.99888 15.1241 5.02419 15.2558 5.07447 15.3787C5.12475 15.5016 5.199 15.6132 5.29289 15.7071C5.38679 15.801 5.49844 15.8753 5.62133 15.9255C5.74423 15.9758 5.87591 16.0011 6.00869 16C6.14147 15.9988 6.27269 15.9712 6.39469 15.9188C6.5167 15.8664 6.62704 15.7902 6.71929 15.6947L11.6693 10.7447Z" fill="#727272"/>
</svg>
