<svg width="24" height="24" viewBox="0 0 24 24" fill="none" xmlns="http://www.w3.org/2000/svg">
<circle cx="6" cy="15" r="0.5" transform="rotate(-180 6 15)" fill="#B5B5B5" stroke="#B5B5B5"/>
<path d="M12.3307 10.7447L9.5 13.414C9.40775 13.5095 9.29741 13.5857 9.1754 13.6381C9.0534 13.6905 8.92218 13.7181 8.7894 13.7192C8.65662 13.7204 8.52494 13.6951 8.40205 13.6448C8.27915 13.5945 8.1675 13.5203 8.0736 13.4264C7.97971 13.3325 7.90546 13.2208 7.85518 13.098C7.8049 12.9751 7.7796 12.8434 7.78075 12.7106C7.7819 12.5778 7.80949 12.4466 7.8619 12.3246C7.91431 12.2026 7.99049 12.0922 8.086 12L11.6237 8.62371C11.8112 8.43624 12.0655 8.33092 12.3307 8.33092C12.5959 8.33092 12.8502 8.43624 13.0377 8.62371L18.6947 14.2807C18.7902 14.373 18.8664 14.4833 18.9188 14.6053C18.9712 14.7273 18.9988 14.8585 19 14.9913C19.0011 15.1241 18.9758 15.2558 18.9255 15.3787C18.8753 15.5016 18.801 15.6132 18.7071 15.7071C18.6132 15.801 18.5016 15.8753 18.3787 15.9255C18.2558 15.9758 18.1241 16.0011 17.9913 16C17.8585 15.9988 17.7273 15.9712 17.6053 15.9188C17.4833 15.8664 17.373 15.7902 17.2807 15.6947L12.3307 10.7447Z" fill="#B5B5B5"/>
</svg>
