<svg width="24" height="24" viewBox="0 0 24 24" fill="none" xmlns="http://www.w3.org/2000/svg">
<circle cx="18" cy="9" r="0.5" fill="#C40E09" stroke="#C40E09"/>
<path d="M11.6693 13.2553L14.5 10.586C14.5922 10.4905 14.7026 10.4143 14.8246 10.3619C14.9466 10.3095 15.0778 10.2819 15.2106 10.2807C15.3434 10.2796 15.4751 10.3049 15.598 10.3552C15.7208 10.4055 15.8325 10.4797 15.9264 10.5736C16.0203 10.6675 16.0945 10.7791 16.1448 10.902C16.1951 11.0249 16.2204 11.1566 16.2193 11.2894C16.2181 11.4222 16.1905 11.5534 16.1381 11.6754C16.0857 11.7974 16.0095 11.9078 15.914 12L12.3763 15.3763C12.1888 15.5638 11.9345 15.6691 11.6693 15.6691C11.4041 15.6691 11.1498 15.5638 10.9623 15.3763L5.30529 9.71929C5.20978 9.62704 5.1336 9.5167 5.08119 9.39469C5.02878 9.27269 5.00119 9.14147 5.00004 9.00869C4.99888 8.87591 5.02419 8.74423 5.07447 8.62133C5.12475 8.49844 5.199 8.38679 5.29289 8.29289C5.38679 8.199 5.49844 8.12475 5.62133 8.07447C5.74423 8.02419 5.87591 7.99888 6.00869 8.00004C6.14147 8.00119 6.27269 8.02878 6.39469 8.08119C6.5167 8.1336 6.62704 8.20978 6.71929 8.30529L11.6693 13.2553Z" fill="#C40E09"/>
</svg>
