<svg width="24" height="24" viewBox="0 0 24 24" fill="none" xmlns="http://www.w3.org/2000/svg">
<path fill-rule="evenodd" clip-rule="evenodd" d="M5 4H15C15.5523 4 16 4.44772 16 5V6H18V5C18 3.34315 16.6569 2 15 2H5C3.34315 2 2 3.34315 2 5V15C2 16.6569 3.34315 18 5 18H6V16H5C4.44772 16 4 15.5523 4 15V5C4 4.44772 4.44772 4 5 4Z" fill="#EF6461"/>
<path d="M21 15.8359V10C21 8.34315 19.6569 7 18 7H10C8.34315 7 7 8.34314 7 10V17.777C7 19.4339 8.34315 20.777 10 20.777H17.2941" stroke="#EF6461" stroke-width="2" stroke-linecap="round"/>
<circle cx="20.1766" cy="20.1764" r="0.823529" fill="#EF6461"/>
<path d="M13.9998 10.2941L13.9998 14M13.9998 14V17.7059M13.9998 14H17.7057M13.9998 14H10.2939" stroke="#EF6461" stroke-width="2" stroke-linecap="round"/>
<path d="M21 15.8359V10C21 8.34315 19.6569 7 18 7H10C8.34315 7 7 8.34314 7 10V17.777C7 19.4339 8.34315 20.777 10 20.777H17.2941" stroke="#EF6461" stroke-width="2" stroke-linecap="round"/>
<circle cx="20.1766" cy="20.1764" r="0.823529" fill="#EF6461"/>
<path d="M13.9998 10.2941L13.9998 14M13.9998 14V17.7059M13.9998 14H17.7057M13.9998 14H10.2939" stroke="#EF6461" stroke-width="2" stroke-linecap="round"/>
</svg>
