<svg width="48" height="48" viewBox="0 0 48 48" fill="none" xmlns="http://www.w3.org/2000/svg">
<path fill-rule="evenodd" clip-rule="evenodd" d="M9.23952 6.15621C9.46211 5.94793 9.82299 5.94793 10.0456 6.15621L13.028 9C13.2506 9.20828 13.2506 9.54597 13.028 9.75425C12.8055 9.96253 12.4446 9.96253 12.222 9.75425L9.64255 7.28758L6.95761 9.75425C6.73503 9.96253 6.37414 9.96253 6.15156 9.75425C5.92897 9.54597 5.92897 9.20828 6.15156 9L9.23952 6.15621Z" fill="#2C76A8"/>
<path fill-rule="evenodd" clip-rule="evenodd" d="M9.64255 6.44444C9.95733 6.44444 10.2125 6.68323 10.2125 6.97778V13.4667C10.2125 13.7612 9.95733 14 9.64255 14C9.32776 14 9.07258 13.7612 9.07258 13.4667V6.97778C9.07258 6.68323 9.32776 6.44444 9.64255 6.44444Z" fill="#2C76A8"/>
<path fill-rule="evenodd" clip-rule="evenodd" d="M9.23952 6.15621C9.46211 5.94793 9.82299 5.94793 10.0456 6.15621L13.028 9C13.2506 9.20828 13.2506 9.54597 13.028 9.75425C12.8055 9.96253 12.4446 9.96253 12.222 9.75425L9.64255 7.28758L6.95761 9.75425C6.73503 9.96253 6.37414 9.96253 6.15156 9.75425C5.92897 9.54597 5.92897 9.20828 6.15156 9L9.23952 6.15621Z" stroke="#2C76A8" stroke-width="0.85" stroke-linecap="round" stroke-linejoin="round"/>
<path fill-rule="evenodd" clip-rule="evenodd" d="M9.64255 6.44444C9.95733 6.44444 10.2125 6.68323 10.2125 6.97778V13.4667C10.2125 13.7612 9.95733 14 9.64255 14C9.32776 14 9.07258 13.7612 9.07258 13.4667V6.97778C9.07258 6.68323 9.32776 6.44444 9.64255 6.44444Z" stroke="#2C76A8" stroke-width="0.85" stroke-linecap="round" stroke-linejoin="round"/>
<path fill-rule="evenodd" clip-rule="evenodd" d="M38.1654 6.15621C38.388 5.94793 38.7489 5.94793 38.9715 6.15621L41.9539 9C42.1765 9.20828 42.1765 9.54597 41.9539 9.75425C41.7314 9.96253 41.3705 9.96253 41.1479 9.75425L38.5685 7.28758L35.8835 9.75425C35.6609 9.96253 35.3 9.96253 35.0775 9.75425C34.8549 9.54597 34.8549 9.20828 35.0775 9L38.1654 6.15621Z" fill="#2C76A8"/>
<path fill-rule="evenodd" clip-rule="evenodd" d="M38.5685 6.44444C38.8832 6.44444 39.1384 6.68323 39.1384 6.97778V13.4667C39.1384 13.7612 38.8832 14 38.5685 14C38.2537 14 37.9985 13.7612 37.9985 13.4667V6.97778C37.9985 6.68323 38.2537 6.44444 38.5685 6.44444Z" fill="#2C76A8"/>
<path fill-rule="evenodd" clip-rule="evenodd" d="M38.1654 6.15621C38.388 5.94793 38.7489 5.94793 38.9715 6.15621L41.9539 9C42.1765 9.20828 42.1765 9.54597 41.9539 9.75425C41.7314 9.96253 41.3705 9.96253 41.1479 9.75425L38.5685 7.28758L35.8835 9.75425C35.6609 9.96253 35.3 9.96253 35.0775 9.75425C34.8549 9.54597 34.8549 9.20828 35.0775 9L38.1654 6.15621Z" stroke="#2C76A8" stroke-width="0.85" stroke-linecap="round" stroke-linejoin="round"/>
<path fill-rule="evenodd" clip-rule="evenodd" d="M38.5685 6.44444C38.8832 6.44444 39.1384 6.68323 39.1384 6.97778V13.4667C39.1384 13.7612 38.8832 14 38.5685 14C38.2537 14 37.9985 13.7612 37.9985 13.4667V6.97778C37.9985 6.68323 38.2537 6.44444 38.5685 6.44444Z" stroke="#2C76A8" stroke-width="0.85" stroke-linecap="round" stroke-linejoin="round"/>
<path fill-rule="evenodd" clip-rule="evenodd" d="M9.23952 41.8438C9.46211 42.0521 9.82299 42.0521 10.0456 41.8438L13.028 39C13.2506 38.7917 13.2506 38.454 13.028 38.2458C12.8055 38.0375 12.4446 38.0375 12.222 38.2458L9.64255 40.7124L6.95761 38.2458C6.73503 38.0375 6.37414 38.0375 6.15156 38.2458C5.92897 38.454 5.92897 38.7917 6.15156 39L9.23952 41.8438Z" fill="#2C76A8"/>
<path fill-rule="evenodd" clip-rule="evenodd" d="M9.64255 41.5556C9.95733 41.5556 10.2125 41.3168 10.2125 41.0222V34.5333C10.2125 34.2388 9.95733 34 9.64255 34C9.32776 34 9.07258 34.2388 9.07258 34.5333V41.0222C9.07258 41.3168 9.32776 41.5556 9.64255 41.5556Z" fill="#2C76A8"/>
<path fill-rule="evenodd" clip-rule="evenodd" d="M9.23952 41.8438C9.46211 42.0521 9.82299 42.0521 10.0456 41.8438L13.028 39C13.2506 38.7917 13.2506 38.454 13.028 38.2458C12.8055 38.0375 12.4446 38.0375 12.222 38.2458L9.64255 40.7124L6.95761 38.2458C6.73503 38.0375 6.37414 38.0375 6.15156 38.2458C5.92897 38.454 5.92897 38.7917 6.15156 39L9.23952 41.8438Z" stroke="#2C76A8" stroke-width="0.85" stroke-linecap="round" stroke-linejoin="round"/>
<path fill-rule="evenodd" clip-rule="evenodd" d="M9.64255 41.5556C9.95733 41.5556 10.2125 41.3168 10.2125 41.0222V34.5333C10.2125 34.2388 9.95733 34 9.64255 34C9.32776 34 9.07258 34.2388 9.07258 34.5333V41.0222C9.07258 41.3168 9.32776 41.5556 9.64255 41.5556Z" stroke="#2C76A8" stroke-width="0.85" stroke-linecap="round" stroke-linejoin="round"/>
<path fill-rule="evenodd" clip-rule="evenodd" d="M38.3933 41.8438C38.6159 42.0521 38.9768 42.0521 39.1994 41.8438L42.1818 39C42.4044 38.7917 42.4044 38.454 42.1818 38.2458C41.9593 38.0375 41.5984 38.0375 41.3758 38.2458L38.7964 40.7124L36.1114 38.2458C35.8888 38.0375 35.528 38.0375 35.3054 38.2458C35.0828 38.454 35.0828 38.7917 35.3054 39L38.3933 41.8438Z" fill="#2C76A8"/>
<path fill-rule="evenodd" clip-rule="evenodd" d="M38.7964 41.5556C39.1111 41.5556 39.3663 41.3168 39.3663 41.0222V34.5333C39.3663 34.2388 39.1111 34 38.7964 34C38.4816 34 38.2264 34.2388 38.2264 34.5333V41.0222C38.2264 41.3168 38.4816 41.5556 38.7964 41.5556Z" fill="#2C76A8"/>
<path fill-rule="evenodd" clip-rule="evenodd" d="M38.3933 41.8438C38.6159 42.0521 38.9768 42.0521 39.1994 41.8438L42.1818 39C42.4044 38.7917 42.4044 38.454 42.1818 38.2458C41.9593 38.0375 41.5984 38.0375 41.3758 38.2458L38.7964 40.7124L36.1114 38.2458C35.8888 38.0375 35.528 38.0375 35.3054 38.2458C35.0828 38.454 35.0828 38.7917 35.3054 39L38.3933 41.8438Z" stroke="#2C76A8" stroke-width="0.85" stroke-linecap="round" stroke-linejoin="round"/>
<path fill-rule="evenodd" clip-rule="evenodd" d="M38.7964 41.5556C39.1111 41.5556 39.3663 41.3168 39.3663 41.0222V34.5333C39.3663 34.2388 39.1111 34 38.7964 34C38.4816 34 38.2264 34.2388 38.2264 34.5333V41.0222C38.2264 41.3168 38.4816 41.5556 38.7964 41.5556Z" stroke="#2C76A8" stroke-width="0.85" stroke-linecap="round" stroke-linejoin="round"/>
<path d="M23.9386 30C27.2439 30 29.9233 27.3137 29.9233 24C29.9233 20.6863 27.2439 18 23.9386 18C20.6334 18 17.954 20.6863 17.954 24C17.954 27.3137 20.6334 30 23.9386 30Z" stroke="#2C76A8" stroke-width="2.8" stroke-linecap="round" stroke-linejoin="round"/>
<path d="M23.9386 13C11.8268 13 6.98206 24 6.98206 24C6.98206 24 11.8268 35 23.9386 35C36.0504 35 40.8951 24 40.8951 24C40.8951 24 36.0504 13 23.9386 13Z" stroke="#2C76A8" stroke-width="2.8" stroke-linecap="round" stroke-linejoin="round"/>
</svg>
