<svg width="24" height="24" viewBox="0 0 24 24" fill="none" xmlns="http://www.w3.org/2000/svg">
<path d="M12 18C8.4 18 5.4003 16.0003 3 12C5.4003 7.99971 8.4 6 12 6C15.6 6 18.5997 7.99971 21 12C20.622 12.6309 20.2278 13.212 19.8201 13.7426" stroke="#727272" stroke-width="2" stroke-linecap="round" stroke-linejoin="round"/>
<path d="M12 15C13.6569 15 15 13.6569 15 12C15 10.3431 13.6569 9 12 9C10.3431 9 9 10.3431 9 12C9 13.6569 10.3431 15 12 15Z" stroke="#727272" stroke-width="2" stroke-linecap="round" stroke-linejoin="round"/>
<path d="M4 20L19 4" stroke="#727272" stroke-width="2" stroke-linecap="round"/>
<circle cx="16" cy="17" r="1" fill="#727272"/>
</svg>
