<svg width="167" height="271" viewBox="0 0 167 271" fill="none" xmlns="http://www.w3.org/2000/svg">
<circle cx="24" cy="24" r="24" transform="matrix(-1 0 0 1 48 0)" fill="#71D395"/>
<path d="M25.9499 27.0215L18.6685 28.509C18.7445 28.994 18.9174 29.4588 19.1771 29.8755C19.4368 30.2922 19.7778 30.6523 20.1798 30.9342C20.5818 31.2161 21.0365 31.414 21.5168 31.5161C21.997 31.6182 22.493 31.6225 22.9749 31.5286C23.9569 31.307 24.815 30.714 25.3696 29.8739C25.9242 29.0337 26.1321 28.0115 25.9499 27.0215Z" fill="#B16668"/>
<path d="M25.3267 28.6038C24.3905 28.4807 23.4406 28.6852 22.638 29.1827C21.8355 29.6803 21.2298 30.4401 20.9237 31.3333C21.5736 31.6 22.2881 31.6673 22.9764 31.5267C23.671 31.3756 24.3097 31.0339 24.8207 30.5399C25.3318 30.0459 25.695 29.4192 25.8696 28.7302C25.6924 28.6732 25.5108 28.6309 25.3267 28.6038Z" fill="#F28F8F"/>
<path d="M10.9387 10.6365L15.4607 9.19361C15.3817 8.89456 15.2426 8.61475 15.0518 8.37127C14.861 8.1278 14.6226 7.92576 14.3512 7.7775C14.0797 7.62924 13.7809 7.53788 13.4729 7.50898C13.165 7.48008 12.8544 7.51426 12.5601 7.60943C11.9542 7.81128 11.4486 8.23742 11.1471 8.80035C10.8456 9.36328 10.771 10.0203 10.9387 10.6365Z" fill="#263238"/>
<path d="M31.579 13.6644L27.6371 10.9125C27.8033 10.6472 28.0218 10.4185 28.2793 10.2404C28.5368 10.0623 28.8279 9.93856 29.1348 9.87662C29.4417 9.81469 29.758 9.8159 30.0644 9.8802C30.3708 9.94449 30.6609 10.0705 30.917 10.2506C31.4445 10.6259 31.8075 11.1896 31.9307 11.8251C32.0539 12.4606 31.928 13.1192 31.579 13.6644Z" fill="#263238"/>
<path d="M21.3375 13.0996L19.3516 25.4458L13.2603 22.1212L21.3375 13.0996Z" fill="#35A65E"/>
<path d="M29.2765 21.6371C29.2765 22.302 29.4736 22.952 29.843 23.5048C30.2124 24.0576 30.7375 24.4885 31.3518 24.743C31.966 24.9974 32.642 25.064 33.2941 24.9343C33.9462 24.8045 34.5452 24.4844 35.0154 24.0142C35.4855 23.5441 35.8057 22.9451 35.9354 22.293C36.0651 21.6408 35.9985 20.9649 35.7441 20.3506C35.4897 19.7364 35.0588 19.2113 34.5059 18.8419C33.9531 18.4726 33.3031 18.2754 32.6382 18.2754C31.7466 18.2754 30.8916 18.6296 30.2611 19.26C29.6307 19.8905 29.2765 20.7455 29.2765 21.6371Z" fill="#35A65E"/>
<path d="M5.54555 18.9989C5.54408 19.6656 5.74042 20.3177 6.10974 20.8728C6.47906 21.4278 7.00474 21.8608 7.62025 22.1169C8.23576 22.3731 8.91342 22.4409 9.56747 22.3117C10.2215 22.1826 10.8225 21.8623 11.2945 21.3914C11.7664 20.9205 12.088 20.3202 12.2187 19.6664C12.3493 19.0127 12.283 18.3349 12.0282 17.7188C11.7734 17.1027 11.3416 16.5761 10.7873 16.2055C10.2331 15.835 9.58143 15.6372 8.91474 15.6372C8.47265 15.6362 8.03469 15.7225 7.62597 15.891C7.21724 16.0595 6.84577 16.307 6.53281 16.6192C6.21985 16.9315 5.97156 17.3024 5.80215 17.7107C5.63275 18.1191 5.54555 18.5569 5.54555 18.9989Z" fill="#35A65E"/>
<path d="M15.6417 14.7049C15.6205 15.2304 15.3963 15.7271 15.0161 16.0906C14.636 16.454 14.1297 16.6558 13.6038 16.6535C13.3465 16.6556 13.0913 16.6058 12.8537 16.5069C12.6161 16.408 12.4009 16.2622 12.221 16.0782C12.0411 15.8941 11.9003 15.6756 11.8069 15.4358C11.7135 15.196 11.6695 14.9398 11.6775 14.6826C11.7024 14.157 11.9288 13.6613 12.3097 13.2984C12.6906 12.9355 13.1967 12.7334 13.7228 12.734C13.9798 12.7318 14.2346 12.7817 14.4719 12.8806C14.7091 12.9796 14.9238 13.1255 15.1031 13.3097C15.2824 13.4939 15.4226 13.7124 15.5151 13.9522C15.6077 14.192 15.6507 14.448 15.6417 14.7049Z" fill="#263238"/>
<path d="M29.8598 16.5876C29.8386 17.115 29.6136 17.6137 29.2321 17.9785C28.8505 18.3434 28.3424 18.546 27.8145 18.5436C27.5577 18.5448 27.3034 18.4941 27.0667 18.3948C26.8299 18.2955 26.6156 18.1495 26.4365 17.9656C26.2574 17.7816 26.1173 17.5635 26.0243 17.3242C25.9314 17.0849 25.8876 16.8293 25.8956 16.5727C25.9186 16.0466 26.1445 15.5498 26.5258 15.1865C26.9071 14.8232 27.4143 14.6217 27.9409 14.6241C28.1973 14.622 28.4514 14.6716 28.6882 14.7701C28.9249 14.8686 29.1392 15.0139 29.3184 15.1973C29.4976 15.3806 29.6379 15.5983 29.731 15.8372C29.824 16.0761 29.8678 16.3313 29.8598 16.5876Z" fill="#263238"/>
<circle cx="143" cy="134" r="24" fill="#A0D2EE"/>
<path d="M130.912 126.645L135.923 125.46C135.851 125.136 135.716 124.831 135.524 124.56C135.333 124.29 135.089 124.06 134.808 123.885C134.527 123.71 134.214 123.593 133.887 123.54C133.56 123.488 133.226 123.501 132.904 123.579C132.251 123.753 131.687 124.163 131.319 124.729C130.951 125.296 130.806 125.978 130.912 126.645Z" fill="#263238"/>
<path d="M152.994 128.221L148.239 126.256C148.347 125.935 148.52 125.64 148.747 125.389C148.973 125.137 149.249 124.935 149.557 124.794C149.865 124.654 150.198 124.578 150.537 124.571C150.875 124.565 151.211 124.628 151.524 124.756C152.17 125.032 152.683 125.546 152.957 126.192C153.231 126.838 153.245 127.565 152.994 128.221Z" fill="#263238"/>
<path d="M151.989 131.53C152.033 131.975 151.943 132.423 151.73 132.817C151.518 133.211 151.192 133.533 150.796 133.741C150.4 133.949 149.95 134.034 149.505 133.986C149.06 133.937 148.64 133.757 148.298 133.468C147.956 133.179 147.708 132.794 147.586 132.364C147.463 131.933 147.472 131.476 147.611 131.05C147.75 130.624 148.013 130.25 148.366 129.975C148.719 129.699 149.146 129.536 149.593 129.505C150.178 129.464 150.755 129.652 151.202 130.03C151.65 130.409 151.932 130.946 151.989 131.53Z" fill="#263238"/>
<path d="M135.489 131.547C135.533 131.989 135.443 132.434 135.23 132.826C135.018 133.217 134.692 133.536 134.296 133.743C133.9 133.95 133.45 134.034 133.005 133.986C132.56 133.937 132.14 133.758 131.798 133.471C131.456 133.184 131.208 132.803 131.086 132.375C130.963 131.947 130.972 131.493 131.111 131.07C131.25 130.648 131.513 130.276 131.866 130.003C132.219 129.729 132.646 129.567 133.093 129.536C133.389 129.479 133.693 129.488 133.984 129.564C134.276 129.639 134.546 129.778 134.776 129.971C135.006 130.164 135.189 130.406 135.313 130.679C135.436 130.951 135.496 131.248 135.489 131.547Z" fill="#263238"/>
<path d="M142.76 129.499L143 141.499L137 140.253C138.026 135.453 140.732 131.983 142.76 129.499Z" fill="#669FC1"/>
<path d="M141.914 146.981C141.914 146.981 141.851 146.845 141.838 146.817C141.86 146.791 141.887 146.77 141.917 146.756C141.948 146.742 141.981 146.735 142.015 146.736L142.378 146.733C142.535 146.722 142.694 146.739 142.846 146.781C142.896 146.798 142.941 146.826 142.978 146.864C143.015 146.901 143.044 146.946 143.061 146.996C143.091 147.025 143.109 147.063 143.111 147.105C143.111 147.105 143.111 147.105 143.016 147.149C142.911 147.182 142.802 147.199 142.692 147.199L142.383 147.21C142.244 147.234 142.101 147.22 141.968 147.17C141.941 147.11 141.923 147.046 141.914 146.981ZM138.601 144.743C138.532 144.593 138.488 144.498 138.671 144.429C138.804 144.393 138.944 144.398 139.074 144.442L140.089 144.601C140.668 144.705 141.253 144.777 141.841 144.815C142.44 144.834 143.04 144.806 143.635 144.73C144.383 144.632 145.098 144.318 145.838 144.24C146.135 144.203 146.701 144.569 146.315 144.879C145.736 145.244 145.086 145.482 144.408 145.579C143.789 145.71 143.16 145.785 142.529 145.803C141.876 145.823 141.223 145.776 140.58 145.663C140.259 145.613 139.945 145.532 139.641 145.419C139.246 145.293 138.897 145.051 138.642 144.724L138.601 144.743Z" fill="#B16668"/>
<circle cx="51" cy="247" r="24" fill="#EFA466"/>
<path d="M47.8957 248.221C47.9157 248.48 47.8819 248.741 47.7964 248.986C47.7109 249.232 47.5755 249.457 47.3989 249.648C47.2222 249.839 47.0079 249.991 46.7696 250.095C46.5313 250.199 46.2741 250.253 46.014 250.253C45.7539 250.253 45.4967 250.199 45.2583 250.095C45.02 249.991 44.8058 249.839 44.6291 249.648C44.4525 249.457 44.3171 249.232 44.2316 248.986C44.1461 248.741 44.1123 248.48 44.1323 248.221C44.1123 247.962 44.1461 247.701 44.2316 247.455C44.3171 247.21 44.4525 246.984 44.6291 246.794C44.8058 246.603 45.02 246.45 45.2583 246.346C45.4967 246.242 45.7539 246.188 46.014 246.188C46.2741 246.188 46.5313 246.242 46.7696 246.346C47.0079 246.45 47.2222 246.603 47.3989 246.794C47.5755 246.984 47.7109 247.21 47.7964 247.455C47.8819 247.701 47.9157 247.962 47.8957 248.221Z" fill="#263238"/>
<path d="M48.3812 242.426L43.6463 244.659C43.1326 243.464 44.1042 242.214 45.2544 241.678C45.5073 241.516 45.7901 241.407 46.0861 241.357C46.382 241.307 46.6849 241.318 46.9768 241.387C47.2686 241.457 47.5434 241.585 47.7847 241.764C48.026 241.942 48.2289 242.167 48.3812 242.426Z" fill="#263238"/>
<path d="M62.9836 243.731L58.3715 242.972C58.4067 242.672 58.5024 242.382 58.6527 242.12C58.8029 241.859 59.0047 241.63 59.2459 241.449C59.487 241.267 59.7624 241.136 60.0555 241.064C60.3486 240.992 60.6532 240.98 60.9511 241.028C61.5727 241.13 62.131 241.468 62.5097 241.972C62.8883 242.475 63.0581 243.105 62.9836 243.731Z" fill="#263238"/>
<path d="M62.2676 247.942C62.2522 248.312 62.1284 248.669 61.9114 248.969C61.6944 249.269 61.3939 249.499 61.0473 249.629C60.7008 249.76 60.3235 249.786 59.9624 249.703C59.6013 249.621 59.2724 249.434 59.0167 249.166C58.761 248.899 58.5898 248.561 58.5243 248.197C58.4589 247.832 58.5021 247.457 58.6487 247.117C58.7952 246.776 59.0386 246.487 59.3485 246.284C59.6584 246.081 60.0211 245.974 60.3914 245.976C60.6437 245.982 60.8923 246.037 61.1232 246.139C61.354 246.241 61.5625 246.388 61.7367 246.57C61.9109 246.753 62.0475 246.968 62.1386 247.203C62.2297 247.438 62.2735 247.689 62.2676 247.942Z" fill="#263238"/>
<path d="M52.7036 243.956L53.9767 257.491L61.2466 255.347L52.7036 243.956Z" fill="#D38341"/>
<path d="M51.0448 260.761L50.9331 260.661C50.7324 260.531 50.5017 260.454 50.263 260.437C49.9322 260.407 49.5989 260.457 49.2915 260.583C49.1104 260.65 48.9453 260.754 48.8068 260.888C48.6683 261.023 48.5595 261.185 48.4874 261.364C48.4874 261.465 48.4874 261.61 48.5544 261.643C48.6214 261.677 48.6996 261.643 48.7666 261.643C49.4058 261.289 50.153 261.182 50.8661 261.342C50.9395 261.359 51.016 261.359 51.0894 261.342C51.1287 261.338 51.1663 261.324 51.1978 261.3C51.2294 261.277 51.2537 261.245 51.2681 261.208C51.2643 261.122 51.2424 261.038 51.2039 260.961C51.1654 260.884 51.1112 260.816 51.0448 260.761Z" fill="#B16668"/>
</svg>
