<svg width="130" height="227" viewBox="0 0 130 227" fill="none" xmlns="http://www.w3.org/2000/svg">
<circle cx="24" cy="24" r="24" fill="#ACDA80"/>
<path d="M22.7093 35.5448C22.8583 36.0117 23.1816 36.4032 23.6119 36.638C24.0422 36.8727 24.5464 36.9325 25.0196 36.8051C25.4929 36.6776 25.8989 36.3725 26.153 35.9534C26.4072 35.5343 26.49 35.0334 26.3843 34.5548C26.1143 33.5348 25.3493 33.9998 24.3443 34.2848C23.3393 34.5698 22.4393 34.4648 22.7093 35.5448Z" fill="#B16668"/>
<path d="M26.4396 21.2198C26.32 21.498 26.2574 21.7974 26.2554 22.1002C26.2535 22.403 26.3123 22.7031 26.4284 22.9828C26.5444 23.2625 26.7154 23.5161 26.9312 23.7286C27.147 23.941 27.4032 24.1081 27.6847 24.2198C28.2537 24.4232 28.88 24.394 29.4277 24.1384C29.9753 23.8829 30.4 23.4216 30.6097 22.8548C30.7237 22.6071 30.7818 22.3373 30.78 22.0646C30.7782 21.7919 30.7164 21.5229 30.599 21.2767C30.4816 21.0305 30.3116 20.8132 30.1009 20.64C29.8901 20.4669 29.6439 20.3422 29.3796 20.2748C29.1261 20.1363 28.8471 20.0509 28.5595 20.0237C28.272 19.9964 27.9818 20.0279 27.7068 20.1163C27.4318 20.2047 27.1777 20.3481 26.9598 20.5378C26.742 20.7275 26.565 20.9596 26.4396 21.2198Z" fill="#263238"/>
<path d="M11.0093 21.3842C11.0531 21.9809 11.3321 22.5358 11.785 22.9269C12.2379 23.3179 12.8276 23.5129 13.4244 23.4692C14.0211 23.4254 14.576 23.1464 14.967 22.6935C15.3581 22.2406 15.5531 21.6509 15.5094 21.0542C15.4194 19.7792 14.3543 19.2692 13.1243 19.3592C11.8943 19.4492 10.9193 20.1092 11.0093 21.3842Z" fill="#263238"/>
<path d="M22.6083 18.9395L21.4833 31.3745L14.0732 29.4245C15.1083 26.4245 20.4633 20.0945 22.6083 18.9395Z" fill="#87AF61"/>
<path d="M10.6057 16.9438L15.4358 15.1588C15.3253 14.8465 15.1537 14.5594 14.9309 14.3143C14.7081 14.0692 14.4387 13.871 14.1384 13.7313C13.838 13.5916 13.5129 13.5132 13.1819 13.5008C12.8509 13.4883 12.5207 13.5421 12.2108 13.6588C11.5843 13.9109 11.0736 14.3862 10.7771 14.9929C10.4807 15.5996 10.4196 16.2947 10.6057 16.9438Z" fill="#263238"/>
<path d="M32.4889 18.2195L27.7339 16.2545C27.8419 15.9338 28.0145 15.6386 28.2411 15.3872C28.4678 15.1358 28.7435 14.9335 29.0514 14.7929C29.3593 14.6524 29.6928 14.5764 30.0312 14.5698C30.3696 14.5632 30.7057 14.6261 31.0189 14.7545C31.6642 15.0302 32.1778 15.545 32.4518 16.191C32.7259 16.8369 32.7392 17.564 32.4889 18.2195Z" fill="#263238"/>
<circle cx="106" cy="203" r="24" fill="#EF9292"/>
<path d="M101.5 199.642L106.206 196.245C106.647 196.914 106.819 197.726 106.686 198.516C106.554 199.307 106.127 200.018 105.492 200.507C105.178 200.726 104.821 200.879 104.445 200.954C104.069 201.03 103.682 201.027 103.307 200.945C102.932 200.864 102.579 200.706 102.268 200.482C101.957 200.258 101.695 199.972 101.5 199.642Z" fill="#263238"/>
<path d="M122.307 195.5L127.005 198.794C126.822 199.123 126.573 199.41 126.273 199.636C125.972 199.863 125.628 200.024 125.261 200.11C124.895 200.195 124.515 200.202 124.145 200.131C123.776 200.061 123.425 199.913 123.116 199.698C122.482 199.225 122.048 198.532 121.898 197.756C121.749 196.979 121.894 196.175 122.307 195.5Z" fill="#263238"/>
<path d="M113.934 200.396L114.72 214.356L122.14 211.896L113.934 200.396Z" fill="#E57878"/>
<path d="M124.535 205.879C124.051 206.943 123.17 206.022 122.154 205.562C121.138 205.101 120.368 205.268 120.844 204.205C120.951 203.955 121.106 203.728 121.3 203.538C121.494 203.348 121.724 203.198 121.976 203.097C122.228 202.996 122.498 202.946 122.769 202.949C123.041 202.953 123.309 203.01 123.559 203.117C124.051 203.357 124.43 203.781 124.613 204.298C124.795 204.815 124.767 205.383 124.535 205.879Z" fill="#263238"/>
<path d="M109.016 205.111C109.5 206.174 108.476 206.008 107.428 206.468C106.381 206.928 105.778 207.833 105.294 206.777C105.165 206.532 105.089 206.263 105.068 205.987C105.048 205.711 105.084 205.434 105.174 205.172C105.264 204.911 105.407 204.671 105.594 204.466C105.781 204.262 106.007 204.098 106.259 203.984C106.512 203.87 106.785 203.809 107.061 203.805C107.338 203.8 107.613 203.853 107.869 203.958C108.125 204.064 108.356 204.22 108.549 204.419C108.743 204.617 108.893 204.852 108.992 205.111H109.016Z" fill="#263238"/>
<path d="M114.27 222.397C114.163 222.567 114.01 222.702 113.829 222.788C113.647 222.874 113.445 222.906 113.246 222.881C112.631 222.803 112.059 222.524 111.619 222.088C111.18 221.653 110.659 221.308 110.088 221.072C109.612 220.959 109.121 220.93 108.635 220.984C108.152 221.045 107.662 221.012 107.191 220.889C106.955 220.825 106.741 220.698 106.572 220.522C106.403 220.346 106.285 220.127 106.23 219.889C106.227 219.56 106.302 219.235 106.452 218.942C106.601 218.649 106.819 218.397 107.088 218.207C107.834 217.65 108.716 217.305 109.642 217.207C110.568 217.109 111.503 217.263 112.349 217.651C112.916 217.898 113.411 218.286 113.786 218.778C114.139 219.267 114.371 219.833 114.46 220.429C114.608 221.088 114.541 221.778 114.27 222.397Z" fill="#B16668"/>
<path d="M112.102 222.443C112.053 221.381 111.627 220.371 110.899 219.595C110.172 218.819 109.191 218.329 108.134 218.213C107.773 218.169 107.407 218.169 107.046 218.213C106.791 218.404 106.586 218.654 106.448 218.941C106.309 219.229 106.243 219.545 106.253 219.864C106.307 220.102 106.425 220.32 106.595 220.497C106.764 220.673 106.977 220.8 107.213 220.864C107.684 220.987 108.174 221.019 108.657 220.959C109.143 220.904 109.634 220.934 110.11 221.046C110.681 221.282 111.202 221.627 111.641 222.062C111.788 222.197 111.942 222.324 112.102 222.443Z" fill="#F28F8F"/>
</svg>
