<svg width="33" height="32" viewBox="0 0 33 32" fill="none" xmlns="http://www.w3.org/2000/svg">
<path d="M16.9816 3C9.53686 3 3.5 8.96756 3.5 16.3291C3.5 22.2183 7.36287 27.2147 12.7195 28.9772C13.3933 29.1006 13.6407 28.688 13.6407 28.3359C13.6407 28.0181 13.6281 26.9681 13.6224 25.8544C9.87179 26.6606 9.08039 24.2817 9.08039 24.2817C8.46708 22.741 7.58341 22.3313 7.58341 22.3313C6.36029 21.504 7.67568 21.5211 7.67568 21.5211C9.02941 21.6151 9.74224 22.8946 9.74224 22.8946C10.9447 24.9323 12.8962 24.3432 13.6655 24.0026C13.7865 23.1412 14.1358 22.5531 14.5214 22.2203C11.527 21.8833 8.37914 20.7403 8.37914 15.633C8.37914 14.1778 8.90576 12.9887 9.76815 12.0552C9.62818 11.7195 9.16675 10.3639 9.89875 8.5278C9.89875 8.5278 11.0309 8.16959 13.6072 9.89414C14.6826 9.59881 15.8359 9.45074 16.9816 9.44563C18.1273 9.45074 19.2815 9.59871 20.3589 9.89414C22.9321 8.16969 24.0626 8.52791 24.0626 8.52791C24.7964 10.3638 24.3348 11.7196 24.1948 12.0552C25.0592 12.9887 25.5822 14.1778 25.5822 15.633C25.5822 20.7525 22.4284 21.8798 19.4264 22.2098C19.9099 22.6234 20.3408 23.4346 20.3408 24.6781C20.3408 26.4615 20.3252 27.8969 20.3252 28.3359C20.3252 28.6907 20.5679 29.1063 21.2512 28.9753C26.6049 27.211 30.463 22.2164 30.463 16.3293C30.463 8.96756 24.4269 3 16.9816 3ZM8.54934 21.9876C8.51964 22.0539 8.41421 22.0738 8.31826 22.0283C8.22041 21.9848 8.16554 21.8945 8.19714 21.8281C8.22621 21.7599 8.33185 21.7408 8.42938 21.7866C8.52733 21.8301 8.58315 21.9212 8.54934 21.9876ZM9.21246 22.5727C9.14821 22.6316 9.02246 22.6042 8.93714 22.5111C8.84899 22.4182 8.83245 22.2939 8.89765 22.2341C8.964 22.1752 9.08586 22.2028 9.17423 22.2957C9.26249 22.3897 9.27955 22.5131 9.21246 22.5727ZM9.66746 23.3212C9.58478 23.3779 9.44976 23.3247 9.36623 23.2062C9.28366 23.0877 9.28366 22.9456 9.36803 22.8886C9.45176 22.8316 9.58478 22.8829 9.66936 23.0005C9.75172 23.121 9.75172 23.2632 9.66736 23.3213L9.66746 23.3212ZM10.4367 24.1881C10.3629 24.2687 10.2055 24.247 10.0902 24.1371C9.97237 24.0296 9.93962 23.8771 10.0138 23.7965C10.0885 23.7157 10.2469 23.7384 10.3629 23.8476C10.4798 23.9548 10.5156 24.1084 10.4367 24.1881ZM11.4312 24.4807C11.3986 24.5851 11.2469 24.6326 11.0943 24.5883C10.9418 24.5425 10.842 24.4203 10.8728 24.3148C10.9045 24.2096 11.0568 24.1603 11.2106 24.2078C11.3629 24.2532 11.4629 24.3745 11.4312 24.4807ZM12.5628 24.6049C12.5666 24.7148 12.4372 24.8059 12.2769 24.808C12.1157 24.8115 11.9852 24.7226 11.9834 24.6143C11.9834 24.5034 12.11 24.4131 12.2713 24.4104C12.4316 24.4073 12.5628 24.4956 12.5628 24.6049ZM13.6745 24.5627C13.6937 24.67 13.5824 24.7802 13.4231 24.8095C13.2667 24.8378 13.1218 24.7715 13.1019 24.6652C13.0825 24.5553 13.1959 24.4451 13.3521 24.4167C13.5116 24.3893 13.6542 24.4537 13.6745 24.5627Z" fill="black"/>
</svg>
