<svg width="48" height="48" viewBox="0 0 48 48" fill="none" xmlns="http://www.w3.org/2000/svg">
<path d="M42 24C42 14.0589 33.9411 6 24 6M42 24H6M42 24C42 26.1038 41.6391 28.1233 40.9758 30M24 42C14.0589 42 6 33.9411 6 24M24 42C27.3137 42 30 33.9411 30 24C30 14.0589 27.3137 6 24 6M24 42C20.6863 42 18 33.9411 18 24C18 14.0589 20.6863 6 24 6M24 42C27.2786 42 30.3524 41.1234 33 39.5919M6 24C6 14.0589 14.0589 6 24 6" stroke="#0B0A0A" stroke-width="4" stroke-linecap="round" stroke-linejoin="round"/>
<circle cx="2" cy="2" r="1" transform="matrix(-1 0 0 1 40 34)" fill="#0B0A0A" stroke="#0B0A0A" stroke-width="2"/>
</svg>
