<svg width="32" height="32" viewBox="0 0 32 32" fill="none" xmlns="http://www.w3.org/2000/svg">
<path d="M25.1532 25.1536H21.3009V19.1205C21.3009 17.6818 21.2752 15.8298 19.2972 15.8298C17.2908 15.8298 16.9837 17.3974 16.9837 19.0158V25.1532H13.1315V12.7467H16.8297V14.4422H16.8815C17.2516 13.8094 17.7864 13.2888 18.429 12.9358C19.0715 12.5829 19.7978 12.4109 20.5304 12.4381C24.435 12.4381 25.1548 15.0064 25.1548 18.3476L25.1532 25.1536ZM8.78459 11.0509C7.5499 11.0511 6.5488 10.0503 6.54859 8.81563C6.54839 7.58094 7.54909 6.57984 8.78378 6.57963C10.0185 6.57933 11.0196 7.58012 11.0198 8.81482C11.0199 9.40775 10.7845 9.97643 10.3653 10.3958C9.94611 10.8151 9.37752 11.0508 8.78459 11.0509ZM10.7108 25.1537H6.8544V12.7467H10.7107V25.1536L10.7108 25.1537ZM27.0738 3.00189H4.91862C3.87151 2.99011 3.0128 3.82892 3 4.87602V27.1236C3.01239 28.1712 3.871 29.0108 4.91852 28.9999H27.0738C28.1235 29.0129 28.9855 28.1732 29 27.1236V4.8743C28.9851 3.82516 28.123 2.98645 27.0738 3.00017" fill="black"/>
</svg>
