<svg width="24" height="24" viewBox="0 0 24 24" fill="none" xmlns="http://www.w3.org/2000/svg">
<path d="M19 16.5736V12.5C19 11.3954 18.1046 10.5 17 10.5H7C5.89543 10.5 5 11.3954 5 12.5V18.8089C5 19.9135 5.89543 20.8089 7 20.8089H15.2941" stroke="#FFFEFE" stroke-width="2" stroke-linecap="round"/>
<circle cx="18" cy="20" r="1" fill="#FFFEFE"/>
<path fill-rule="evenodd" clip-rule="evenodd" d="M12.5 2C11.3065 2 10.1619 2.47411 9.31802 3.31802C8.47411 4.16193 8 5.30653 8 6.5V10H9.5V6.5C9.5 5.70435 9.81607 4.94129 10.3787 4.37868C10.9413 3.81607 11.7044 3.5 12.5 3.5C13.2956 3.5 14.0587 3.81607 14.6213 4.37868C15.1839 4.94129 15.5 5.70435 15.5 6.5C15.5 6.91421 15.8358 7.25 16.25 7.25C16.6642 7.25 17 6.91421 17 6.5C17 5.30653 16.5259 4.16193 15.682 3.31802C14.8381 2.47411 13.6935 2 12.5 2Z" fill="#FFFEFE"/>
</svg>
