<svg width="24" height="24" viewBox="0 0 24 24" fill="none" xmlns="http://www.w3.org/2000/svg">
<path d="M19 16.5736V12.5C19 11.3954 18.1046 10.5 17 10.5H7C5.89543 10.5 5 11.3954 5 12.5V18.8089C5 19.9135 5.89543 20.8089 7 20.8089H15.2941" stroke="#0B0A0A" stroke-width="2" stroke-linecap="round"/>
<circle cx="18" cy="20" r="1" fill="#0B0A0A"/>
<path fill-rule="evenodd" clip-rule="evenodd" d="M11.9801 2.46094C10.6593 2.46094 9.39257 2.98562 8.45863 3.91957C7.52468 4.85351 7 6.12021 7 7.44101V11H8.66002V7.44101C8.66002 6.56048 9.00981 5.71601 9.63244 5.09338C10.2551 4.47075 11.0995 4.12096 11.9801 4.12096C12.8606 4.12096 13.7051 4.47075 14.3277 5.09338C14.9503 5.71601 15.3001 6.56048 15.3001 7.44101V11H16.9601V7.44101C16.9601 6.12021 16.4355 4.85351 15.5015 3.91957C14.5676 2.98562 13.3009 2.46094 11.9801 2.46094Z" fill="#0B0A0A"/>
</svg>
