<svg width="44" height="48" viewBox="0 0 44 48" fill="none" xmlns="http://www.w3.org/2000/svg">
<g clip-path="url(#clip0_6204_97591)">
<path d="M32.8566 16.5094C32.7036 16.279 32.3708 16.2709 32.2018 16.4906C31.5845 17.3106 30.5674 17.8143 29.4376 17.7098C27.9347 17.5678 26.7324 16.3111 26.6546 14.8053C26.6063 13.8782 26.9686 13.0369 27.5778 12.442C27.779 12.2464 27.7307 11.9142 27.4785 11.7936C25.4603 10.8076 23.1604 10.3038 20.7316 10.4378C14.0412 10.8076 8.54499 16.0968 7.95457 22.7605C7.23534 30.8792 13.6762 37.6823 21.6817 37.5832C29.1584 37.4894 35.2316 31.2409 35.1109 23.776C35.0679 21.0912 34.2414 18.5994 32.8566 16.5094ZM21.5099 28.6419C18.9416 28.6419 16.8591 26.5626 16.8591 23.9984C16.8591 21.4342 18.9416 19.355 21.5099 19.355C24.0782 19.355 26.1608 21.4342 26.1608 23.9984C26.1608 26.5626 24.0782 28.6419 21.5099 28.6419Z" fill="#0078AD"/>
<path d="M39.563 25.5822L39.088 25.3089C38.6479 25.0543 38.0977 25.3437 38.0441 25.8501C37.1531 34.1725 30.0789 40.6781 21.5098 40.6781C13.4265 40.6781 6.67703 34.8906 5.18758 27.2515C5.15001 27.0612 5.03461 26.8924 4.86554 26.796L2.81788 25.617C1.56459 24.8909 0 25.7939 0 27.2381V31.5573C0 34.5529 1.59948 37.3208 4.19998 38.8186L17.3098 46.3773C19.9077 47.8751 23.1093 47.8751 25.7071 46.3773L38.817 38.8186C41.4148 37.3208 43.0169 34.5529 43.0169 31.5573C43.0169 29.0923 41.6993 26.8147 39.5604 25.5822H39.563Z" fill="#0078AD"/>
<path d="M38.8196 9.18156L25.7071 1.62287C23.1093 0.12506 19.9077 0.12506 17.3098 1.62287L4.19998 9.18156C1.59948 10.6794 0 13.4472 0 16.4428C0 18.9026 1.31501 21.1774 3.44855 22.4073L3.97992 22.7127C4.40126 22.9565 4.92726 22.6832 4.98362 22.1983C5.91755 13.9188 12.973 7.46404 21.5098 7.46404C29.5368 7.46404 36.246 13.1712 37.7999 20.7326C37.8374 20.9202 37.9528 21.0836 38.1192 21.1801L40.1991 22.3805C41.4524 23.1012 43.0169 22.2009 43.0169 20.7567V16.4455C43.0169 13.4499 41.4175 10.682 38.817 9.18424L38.8196 9.18156Z" fill="#0078AD"/>
</g>
<defs>
<clipPath id="clip0_6204_97591">
<rect width="43.0169" height="47" fill="white" transform="translate(0 0.5)"/>
</clipPath>
</defs>
</svg>
