<svg width="24" height="24" viewBox="0 0 24 24" fill="none" xmlns="http://www.w3.org/2000/svg">
<circle cx="19" cy="18" r="1" fill="#FFFEFE"/>
<path d="M21 12C21 7.02944 16.9706 3 12 3C7.02944 3 3 7.02944 3 12C3 16.9706 7.02944 21 12 21C13.6141 21 15.1289 20.5751 16.4387 19.8311" stroke="#FFFEFE" stroke-width="2" stroke-linecap="round"/>
<path d="M9 7.42C9 7.28933 9.03733 7.18667 9.112 7.112C9.18667 7.03733 9.28933 7 9.42 7H13.158C13.9793 7 14.7027 7.15867 15.328 7.476C15.9533 7.79333 16.4387 8.23667 16.784 8.806C17.12 9.366 17.288 9.98667 17.288 10.668C17.288 11.3587 17.1293 11.9747 16.812 12.516C16.4947 13.048 16.028 13.468 15.412 13.776C14.7867 14.0933 14.0307 14.252 13.144 14.252H11.212V16.814C11.212 16.9447 11.1747 17.0473 11.1 17.122C11.0253 17.1967 10.9227 17.234 10.792 17.234H9.42C9.28933 17.234 9.18667 17.1967 9.112 17.122C9.03733 17.0473 9 16.9447 9 16.814V7.42ZM13.466 12.334C13.97 12.334 14.362 12.1753 14.642 11.858C14.922 11.5407 15.062 11.144 15.062 10.668C15.062 10.36 14.992 10.0753 14.852 9.814C14.712 9.55267 14.5067 9.338 14.236 9.17C13.956 9.002 13.6247 8.918 13.242 8.918H11.212V12.334H13.466Z" fill="#FFFEFE"/>
</svg>
