<svg width="48" height="48" viewBox="0 0 48 48" fill="none" xmlns="http://www.w3.org/2000/svg">
<path d="M38.9002 18H8.97695C8.18333 18 7.42222 18.3161 6.86105 18.8787C6.29988 19.4413 5.98462 20.2044 5.98462 21V39C5.98462 39.7957 6.29988 40.5587 6.86105 41.1213C7.42222 41.6839 8.18333 42 8.97695 42H38.9002C39.6938 42 40.4549 41.6839 41.0161 41.1213C41.5773 40.5587 41.8926 39.7957 41.8926 39V21C41.8926 20.2044 41.5773 19.4413 41.0161 18.8787C40.4549 18.3161 39.6938 18 38.9002 18ZM38.9002 39H8.97695V21H38.9002V39ZM8.97695 13.5C8.97695 13.1022 9.13458 12.7206 9.41516 12.4393C9.69575 12.158 10.0763 12 10.4731 12H37.4041C37.8009 12 38.1814 12.158 38.462 12.4393C38.7426 12.7206 38.9002 13.1022 38.9002 13.5C38.9002 13.8978 38.7426 14.2794 38.462 14.5607C38.1814 14.842 37.8009 15 37.4041 15H10.4731C10.0763 15 9.69575 14.842 9.41516 14.5607C9.13458 14.2794 8.97695 13.8978 8.97695 13.5ZM11.9693 7.5C11.9693 7.10218 12.1269 6.72064 12.4075 6.43934C12.6881 6.15804 13.0686 6 13.4654 6H34.4117C34.8085 6 35.1891 6.15804 35.4697 6.43934C35.7503 6.72064 35.9079 7.10218 35.9079 7.5C35.9079 7.89782 35.7503 8.27936 35.4697 8.56066C35.1891 8.84196 34.8085 9 34.4117 9H13.4654C13.0686 9 12.6881 8.84196 12.4075 8.56066C12.1269 8.27936 11.9693 7.89782 11.9693 7.5Z" fill="#2C76A8"/>
</svg>
