<svg width="181" height="48" viewBox="0 0 181 48" fill="none" xmlns="http://www.w3.org/2000/svg">
<g clip-path="url(#clip0_5712_73630)">
<path d="M58.8945 28.1475H64.6095C64.8668 30.4572 66.376 31.4218 69.1048 31.4218C70.9678 31.4218 72.7986 30.7466 72.7986 29.013C72.7986 27.1829 70.9356 26.7998 67.7887 26.0281C63.808 25.0983 59.5995 23.8765 59.5995 19.0642C59.5995 14.252 63.5802 12.0039 68.7188 12.0039C73.8575 12.0039 77.5486 14.252 77.7738 19.0642H72.2196C71.9945 17.2985 70.6461 16.3044 68.5258 16.3044C66.5341 16.3044 65.218 17.1725 65.218 18.456C65.218 20.061 66.9845 20.4468 70.421 21.2158C74.6911 22.2099 78.5458 23.5282 78.5458 28.4369C78.5458 33.3456 74.4365 35.9152 69.137 35.9152C63.036 35.9152 59.0232 33.2197 58.8945 28.1475Z" fill="#3F4040"/>
<path d="M81.1797 12.0039H86.4148V16.6581H81.1797V12.0039ZM81.1797 18.9356H86.4148V35.9152H81.1797V18.9356Z" fill="#3F4040"/>
<path d="M89.1715 35.7542H94.2458C94.5353 36.6197 95.4011 37.3592 97.1354 37.3592C99.3523 37.3592 100.282 36.2044 100.282 34.2136V32.5764H100.154C99.1914 33.667 97.9396 34.4708 95.9479 34.4708C92.2541 34.4708 88.8203 31.711 88.8203 26.671C88.8203 21.6309 91.6456 18.4531 95.7228 18.4531C97.9074 18.4531 99.3844 19.3213 100.347 20.7012H100.411V18.9354H105.421V33.7634C105.421 36.2339 104.553 38.0318 103.236 39.2214C101.792 40.5049 99.6391 41.0515 97.1998 41.0515C92.6723 41.0515 89.6861 39.1893 89.1715 35.7569V35.7542ZM100.508 26.478C100.508 24.2648 99.3523 22.4026 97.1676 22.4026C95.2081 22.4026 93.9241 24.0076 93.9241 26.5102C93.9241 29.0128 95.2081 30.5856 97.1676 30.5856C99.4461 30.5856 100.508 28.7877 100.508 26.478Z" fill="#3F4040"/>
<path d="M108.566 12.0039H113.802V20.9586H113.898C115.086 19.3858 116.498 18.456 118.779 18.456C122.377 18.456 124.494 21.0229 124.494 24.683V35.9179H119.259V25.7441C119.259 24.0105 118.393 22.8235 116.691 22.8235C114.989 22.8235 113.802 24.2677 113.802 26.2907V35.9206H108.566V12.0039Z" fill="#3F4040"/>
<path d="M128.47 31.3923V22.2126H126.285V18.9383H128.47V12.0039H133.576V18.9383H136.562V22.2126H133.576V30.2696C133.576 31.5531 134.284 31.8746 135.407 31.8746C135.857 31.8746 136.369 31.8425 136.562 31.8425V35.6607C136.112 35.7893 135.118 35.9179 133.705 35.9179C130.654 35.9179 128.47 34.9238 128.47 31.3923Z" fill="#3F4040"/>
<path d="M139.26 27.2821V12.0039H144.943V27.475C144.943 29.723 146.099 31.2315 148.894 31.2315C151.527 31.2315 152.779 29.6266 152.779 27.3785V12.0039H158.461V27.2821C158.461 32.5793 155.282 35.7866 148.892 35.7866C142.501 35.7866 139.258 32.6409 139.258 27.2821H139.26Z" fill="#0078AD"/>
<path d="M162.09 12.0039H172.429C175.222 12.0039 177.278 12.7729 178.691 14.1233C180.168 15.5033 181.001 17.8799 181.001 20.1896C181.001 24.5865 177.951 27.7 173.23 27.7H167.869V35.7893H162.09V12.0039ZM172.075 23.204C174.131 23.204 175.286 21.9848 175.286 20.1548C175.286 18.3247 174.099 17.202 172.075 17.202H167.869V23.204H172.075Z" fill="#0078AD"/>
<path fill-rule="evenodd" clip-rule="evenodd" d="M29.4073 17.7113C30.5358 17.8158 31.5518 17.312 32.1683 16.4921H32.1656C32.3345 16.2724 32.6669 16.2804 32.8197 16.5109C34.2029 18.6008 35.0285 21.0927 35.0714 23.7775C35.192 31.2424 29.1259 37.4909 21.6578 37.5846C13.6644 37.6838 7.23099 30.8807 7.94938 22.762C8.53911 16.0982 14.0289 10.809 20.7116 10.4393C23.1375 10.3053 25.4347 10.809 27.4505 11.7951C27.7025 11.9156 27.7507 12.2479 27.5497 12.4435C26.9412 13.0383 26.5793 13.8797 26.6276 14.8067C26.7053 16.3126 27.9062 17.5692 29.4073 17.7113ZM26.1318 23.9999C26.1318 26.5644 24.052 28.6434 21.4864 28.6434C18.9208 28.6434 16.8409 26.5644 16.8409 23.9999C16.8409 21.4354 18.9208 19.3565 21.4864 19.3565C24.052 19.3565 26.1318 21.4354 26.1318 23.9999Z" fill="#0078AD"/>
<path d="M39.5169 25.5822L39.0425 25.3089C38.6029 25.0543 38.0533 25.3437 37.9997 25.8501C37.1098 34.1725 30.0438 40.6781 21.4848 40.6781C13.4109 40.6781 6.66925 34.8906 5.18154 27.2515C5.14401 27.0612 5.02875 26.8924 4.85987 26.796L2.8146 25.617C1.56277 24.8963 0 25.7965 0 27.2408V31.56C0 34.5556 1.59762 37.3235 4.19509 38.8213L17.2897 46.38C19.8845 47.8778 23.0824 47.8778 25.6772 46.38L38.7717 38.8213C41.3665 37.3235 42.9668 34.5556 42.9668 31.56C42.9668 29.0949 41.6507 26.8174 39.5143 25.5849L39.5169 25.5822Z" fill="#0078AD"/>
<path d="M38.7744 9.18204L25.6772 1.62335C23.0824 0.125549 19.8845 0.125549 17.2897 1.62335L4.19509 9.18204C1.59762 10.6799 0 13.4477 0 16.4433C0 18.903 1.31348 21.1779 3.44453 22.4077L3.97528 22.7132C4.39613 22.957 4.92152 22.6837 4.97782 22.1988C5.91065 13.9193 12.9579 7.46453 21.4848 7.46453C29.5023 7.46453 36.2038 13.1717 37.7558 20.7331C37.7933 20.9207 37.9086 21.0841 38.0748 21.1806L40.1522 22.381C41.4041 23.1017 42.9668 22.2014 42.9668 20.7572V16.446C42.9668 13.4504 41.3692 10.6825 38.7717 9.18472L38.7744 9.18204Z" fill="#0078AD"/>
</g>
<defs>
<clipPath id="clip0_5712_73630">
<rect width="181" height="47" fill="white" transform="translate(0 0.5)"/>
</clipPath>
</defs>
</svg>
