<svg width="24" height="24" viewBox="0 0 24 24" fill="none" xmlns="http://www.w3.org/2000/svg">
<path d="M20.8243 15.1757C20.9368 15.0632 21 14.9106 21 14.7515V9.5C21 8.67157 20.3284 8 19.5 8C18.6716 8 18 8.67157 18 9.5V14" stroke="#0B0A0A" stroke-width="1.5" stroke-linecap="round" stroke-linejoin="round"/>
<path d="M17 15.0001L17.8581 14.142C17.949 14.0511 18 13.9279 18 13.7995C18 13.616 17.8963 13.4483 17.7322 13.3662L17.2893 13.1448C16.5194 12.7598 15.5894 12.9107 14.9807 13.5194L14.0858 14.4143C13.7107 14.7894 13.5 15.2981 13.5 15.8285V19.0001" stroke="#0B0A0A" stroke-width="1.5" stroke-linecap="round" stroke-linejoin="round"/>
<path d="M7 19L3.17574 15.1757C3.06321 15.0632 3 14.9106 3 14.7515V9.5C3 8.67157 3.67157 8 4.5 8C5.32843 8 6 8.67157 6 9.5V14" stroke="#0B0A0A" stroke-width="1.5" stroke-linecap="round" stroke-linejoin="round"/>
<path d="M7 15.0001L6.14187 14.142C6.05103 14.0511 6 13.9279 6 13.7995C6 13.616 6.10366 13.4483 6.26776 13.3662L6.71067 13.1448C7.48064 12.7598 8.41059 12.9107 9.01931 13.5194L9.91421 14.4143C10.2893 14.7894 10.5 15.2981 10.5 15.8285V19.0001" stroke="#0B0A0A" stroke-width="1.5" stroke-linecap="round" stroke-linejoin="round"/>
<path d="M11.3056 6.11325L12.2147 4.1856C12.3314 3.93813 12.6686 3.93813 12.7853 4.1856L13.6944 6.11325L15.7275 6.42427C15.9884 6.46418 16.0923 6.79977 15.9035 6.99229L14.4326 8.4917L14.7797 10.61C14.8243 10.882 14.5515 11.0895 14.3181 10.961L12.5 9.96031L10.6819 10.961C10.4485 11.0895 10.1757 10.882 10.2203 10.61L10.5674 8.4917L9.09651 6.99229C8.90766 6.79977 9.01163 6.46418 9.27248 6.42427L11.3056 6.11325Z" stroke="#0B0A0A" stroke-width="1.5" stroke-linecap="round" stroke-linejoin="round"/>
<circle cx="18" cy="18" r="1" fill="#0B0A0A"/>
</svg>
