<svg width="48" height="48" viewBox="0 0 48 48" fill="none" xmlns="http://www.w3.org/2000/svg">
<path d="M43.3888 9V16.5C43.3888 16.8978 43.2312 17.2794 42.9506 17.5607C42.67 17.842 42.2894 18 41.8926 18C41.4958 18 41.1153 17.842 40.8347 17.5607C40.5541 17.2794 40.3965 16.8978 40.3965 16.5V10.5H34.4118C34.015 10.5 33.6344 10.342 33.3539 10.0607C33.0733 9.77936 32.9156 9.39782 32.9156 9C32.9156 8.60218 33.0733 8.22064 33.3539 7.93934C33.6344 7.65804 34.015 7.5 34.4118 7.5H41.8926C42.2894 7.5 42.67 7.65804 42.9506 7.93934C43.2312 8.22064 43.3888 8.60218 43.3888 9ZM13.4655 37.5H7.48085V31.5C7.48085 31.1022 7.32322 30.7206 7.04264 30.4393C6.76205 30.158 6.3815 30 5.98469 30C5.58788 30 5.20733 30.158 4.92674 30.4393C4.64616 30.7206 4.48853 31.1022 4.48853 31.5V39C4.48853 39.3978 4.64616 39.7794 4.92674 40.0607C5.20733 40.342 5.58788 40.5 5.98469 40.5H13.4655C13.8623 40.5 14.2429 40.342 14.5235 40.0607C14.804 39.7794 14.9617 39.3978 14.9617 39C14.9617 38.6022 14.804 38.2206 14.5235 37.9393C14.2429 37.658 13.8623 37.5 13.4655 37.5ZM41.8926 30C41.4958 30 41.1153 30.158 40.8347 30.4393C40.5541 30.7206 40.3965 31.1022 40.3965 31.5V37.5H34.4118C34.015 37.5 33.6344 37.658 33.3539 37.9393C33.0733 38.2206 32.9156 38.6022 32.9156 39C32.9156 39.3978 33.0733 39.7794 33.3539 40.0607C33.6344 40.342 34.015 40.5 34.4118 40.5H41.8926C42.2894 40.5 42.67 40.342 42.9506 40.0607C43.2312 39.7794 43.3888 39.3978 43.3888 39V31.5C43.3888 31.1022 43.2312 30.7206 42.9506 30.4393C42.67 30.158 42.2894 30 41.8926 30ZM5.98469 18C6.3815 18 6.76205 17.842 7.04264 17.5607C7.32322 17.2794 7.48085 16.8978 7.48085 16.5V10.5H13.4655C13.8623 10.5 14.2429 10.342 14.5235 10.0607C14.804 9.77936 14.9617 9.39782 14.9617 9C14.9617 8.60218 14.804 8.22064 14.5235 7.93934C14.2429 7.65804 13.8623 7.5 13.4655 7.5H5.98469C5.58788 7.5 5.20733 7.65804 4.92674 7.93934C4.64616 8.22064 4.48853 8.60218 4.48853 9V16.5C4.48853 16.8978 4.64616 17.2794 4.92674 17.5607C5.20733 17.842 5.58788 18 5.98469 18Z" fill="#2C76A8"/>
<path d="M23.7169 14C13.1884 14 8.97693 23.5 8.97693 23.5C8.97693 23.5 13.1884 33 23.7169 33C34.2455 33 38.4569 23.5 38.4569 23.5C38.4569 23.5 34.2455 14 23.7169 14Z" stroke="#2C76A8" stroke-width="2.8" stroke-linecap="round" stroke-linejoin="round"/>
<path d="M23.7169 28.7777C26.6243 28.7777 28.9812 26.4148 28.9812 23.4999C28.9812 20.5851 26.6243 18.2222 23.7169 18.2222C20.8095 18.2222 18.4526 20.5851 18.4526 23.4999C18.4526 26.4148 20.8095 28.7777 23.7169 28.7777Z" stroke="#2C76A8" stroke-width="2.8" stroke-linecap="round" stroke-linejoin="round"/>
</svg>
